<svg width="740" height="331" viewBox="0 0 740 331" fill="none" xmlns="http://www.w3.org/2000/svg">
<path d="M0 110.145C0 78.0702 26.0017 52.0685 58.0764 52.0685H310.124C324.503 52.0685 336.159 40.4126 336.159 26.0343V26.0343C336.159 11.6559 347.814 0 362.193 0H607.237C621.616 0 633.271 11.6559 633.271 26.0343V26.0343C633.271 40.4126 644.927 52.0685 659.306 52.0685H663.166C679.676 52.0685 693.06 65.4526 693.06 81.9628V130.668C693.06 143.39 703.373 153.702 716.094 153.702V153.702C735.045 153.702 745.888 175.312 734.561 190.505L682 261L637.318 318.482C621.701 338.573 589.5 327.53 589.5 302.083V302.083C589.5 287.326 577.537 275.362 562.779 275.362H349.122C340.657 275.362 332.369 277.786 325.237 282.346L309.907 292.148C300.956 297.872 289.206 296.459 281.867 288.778V288.778C274.445 281.01 262.529 279.664 253.561 285.58L207.519 315.955C171.275 339.866 123.024 333.873 93.7313 301.821L84.849 292.102C75.0074 281.334 69.55 267.273 69.55 252.685V229.031C69.55 209.825 53.9807 194.256 34.775 194.256V194.256C15.5693 194.256 0 178.686 0 159.481V110.145V110.145Z" fill="#D9D9D9"/>
</svg>
